<?xml version="1.0" standalone="no"?>
<!DOCTYPE svg PUBLIC "-//W3C//DTD SVG 20010904//EN"
 "http://www.w3.org/TR/2001/REC-SVG-20010904/DTD/svg10.dtd">
<svg version="1.0" xmlns="http://www.w3.org/2000/svg"
 width="443.000000pt" height="443.000000pt" viewBox="0 0 443.000000 443.000000"
 preserveAspectRatio="xMidYMid meet">
<metadata>
Created by potrace 1.14, written by Peter Selinger 2001-2017
</metadata>
<g transform="translate(0.000000,443.000000) scale(0.100000,-0.100000)"
fill="#000000" stroke="none">
<path d="M2878 4283 c0 -82 -2 -159 -3 -173 -5 -69 -5 -273 1 -336 l6 -70 -41
-13 c-23 -6 -41 -15 -41 -20 0 -4 -35 -18 -77 -31 -43 -13 -80 -26 -83 -31 -3
-4 -23 -9 -45 -12 l-40 -4 43 -1 c53 -2 56 -22 2 -22 -43 0 -54 -14 -17 -24
l22 -6 -25 -13 c-32 -17 -100 -10 -100 9 0 18 -20 17 -44 -1 -29 -22 -53 -18
-72 10 -16 25 -44 34 -44 15 0 -5 -5 -10 -11 -10 -6 0 -8 8 -4 19 4 14 0 21
-14 26 -12 3 -25 3 -31 0 -12 -7 -74 4 -66 12 7 8 -22 35 -32 29 -4 -3 -25 -1
-45 3 -23 6 -37 5 -39 -1 -3 -7 -21 -7 -56 1 -63 13 -112 14 -112 2 0 -5 -10
-12 -22 -16 -61 -21 -85 -23 -115 -13 -40 14 -189 -6 -216 -30 -12 -11 -39
-15 -90 -15 -59 0 -78 -4 -107 -23 -19 -13 -40 -24 -46 -24 -6 0 -23 -11 -38
-25 -15 -13 -33 -22 -41 -19 -24 10 -116 -39 -176 -93 -29 -27 -90 -78 -134
-113 -104 -84 -128 -108 -207 -210 -36 -47 -78 -96 -93 -110 -30 -27 -125
-165 -125 -181 0 -6 -11 -21 -25 -35 -14 -14 -25 -29 -25 -34 0 -5 -6 -15 -13
-22 -17 -17 -69 -95 -86 -130 -7 -14 -31 -48 -53 -75 -51 -61 -115 -160 -165
-254 -43 -82 -62 -114 -104 -176 l-29 -41 0 -546 c0 -593 -3 -564 52 -535 16
8 22 8 29 -2 6 -10 14 0 28 31 11 25 21 52 21 61 0 24 19 36 65 43 29 5 52 18
85 51 33 34 40 45 27 45 -12 0 -17 6 -15 17 7 37 188 33 188 -4 0 -7 5 -13 11
-13 14 0 69 -55 69 -69 0 -8 6 -7 19 1 15 9 23 9 36 -2 13 -11 18 -11 25 -1 5
9 10 10 14 2 4 -6 19 -11 33 -11 30 0 52 -25 53 -57 0 -13 4 -23 9 -23 5 0 12
-11 15 -25 4 -14 13 -25 21 -25 8 0 15 -6 15 -14 0 -7 10 -17 23 -21 38 -11
248 -15 267 -5 13 7 32 6 63 -5 45 -15 77 -13 182 15 22 6 49 13 60 15 20 3
64 20 140 54 22 10 76 26 120 36 77 18 82 21 152 91 39 39 81 92 92 115 12 24
43 69 71 99 27 30 49 58 50 63 0 4 9 7 19 7 11 0 23 5 26 10 4 6 10 8 15 5 5
-3 11 -1 14 4 3 5 25 8 49 7 36 -2 45 -7 65 -37 31 -47 69 -61 135 -51 28 4
79 4 112 0 33 -5 70 -7 83 -5 12 2 22 0 22 -6 0 -5 7 -4 16 4 11 9 18 9 22 2
10 -15 62 -13 62 3 0 17 -20 29 -21 12 0 -7 -6 -2 -12 12 -7 14 -31 43 -53 63
-33 30 -49 37 -81 37 -50 0 -73 23 -73 75 0 46 33 100 70 114 14 6 47 13 74
17 113 16 151 41 294 199 10 11 40 41 68 67 27 26 59 60 70 76 43 55 94 184
94 236 0 74 72 416 96 454 22 34 82 30 114 -8 14 -16 35 -41 47 -55 18 -22 21
-39 22 -107 1 -85 6 -102 22 -78 7 11 8 8 3 -11 -7 -32 20 -134 54 -206 20
-42 32 -54 66 -67 46 -18 166 -22 166 -6 0 6 7 10 16 10 9 0 31 7 50 16 38 18
46 15 48 -18 1 -16 8 -24 24 -26 15 -2 22 -10 22 -27 0 -25 22 -35 78 -35 20
0 39 -8 49 -20 26 -30 108 -28 134 3 10 12 18 34 19 48 0 15 7 43 15 62 8 20
22 73 31 118 15 71 15 94 5 163 -7 45 -17 86 -21 91 -15 18 -59 149 -85 255
-9 36 -27 99 -40 140 -13 41 -23 87 -23 102 1 57 -34 144 -77 192 -47 51 -70
97 -61 121 7 18 109 21 153 4 39 -15 200 -32 313 -33 l95 -1 3 558 2 557 -775
0 -775 0 -2 -147z m708 -1729 c7 -28 -9 -74 -26 -74 -11 0 -14 83 -3 93 13 13
23 7 29 -19z m-1116 -155 c0 -29 -18 -59 -35 -59 -20 0 -19 39 2 62 21 24 33
23 33 -3z m1484 -8 c8 -13 -11 -61 -24 -61 -5 0 -10 16 -10 35 0 34 20 49 34
26z m-69 -151 c-9 -17 -20 -28 -25 -25 -13 8 10 55 27 55 11 0 11 -6 -2 -30z
m-3645 -1160 c0 -5 -4 -10 -10 -10 -5 0 -10 5 -10 10 0 6 5 10 10 10 6 0 10
-4 10 -10z"/>
<path d="M2770 3706 c0 -2 7 -6 15 -10 8 -3 15 -1 15 4 0 6 -7 10 -15 10 -8 0
-15 -2 -15 -4z"/>
<path d="M2400 3636 c0 -12 10 -16 42 -16 47 0 42 14 -9 25 -26 5 -33 3 -33
-9z"/>
<path d="M3361 1458 c-17 -17 -33 -40 -37 -50 -3 -10 -9 -18 -14 -18 -5 0 -11
-8 -14 -17 -3 -10 -17 -30 -31 -45 l-26 -28 35 0 c23 0 43 8 57 23 13 13 23
18 26 11 6 -17 43 3 71 38 l24 28 -30 45 -30 45 -31 -32z"/>
<path d="M2676 1342 c-7 -12 7 -29 29 -35 11 -2 1 -5 -22 -6 -45 -1 -61 -24
-25 -35 34 -10 102 -5 102 7 0 19 -30 58 -40 52 -4 -3 -10 2 -14 10 -6 16 -22
20 -30 7z"/>
<path d="M0 354 l0 -336 284 4 c156 2 288 7 293 12 4 4 -2 15 -14 23 -13 9
-23 24 -23 34 0 11 -7 19 -15 19 -8 0 -15 8 -15 18 -1 29 -55 117 -76 121 -30
5 -41 19 -47 56 -3 21 -20 49 -40 70 -19 20 -37 49 -40 65 -4 19 -19 38 -44
54 -21 13 -67 54 -102 91 -35 36 -70 64 -77 61 -7 -3 -29 6 -48 19 l-36 24 0
-335z"/>
</g>
</svg>
